<svg width="20" height="22" viewBox="0 0 20 22" fill="none" xmlns="http://www.w3.org/2000/svg">
<path d="M2.92969 22H9.45313V14.1797H7.10938V11.6016H9.45313L9.45312 8.37891C9.45312 6.60191 10.7674 5.15625 12.3828 5.15625H15.3125V7.73437H12.9688C12.3225 7.73437 11.7969 8.31261 11.7969 9.02344L11.7969 11.6016H15.2068L14.8161 14.1797H11.7969V22H17.0703C18.6858 22 20 20.5543 20 18.7773V3.22266C20 1.44566 18.6858 0 17.0703 0L2.92969 0C1.31424 0 0 1.44566 0 3.22266L0 18.7773C0 20.5543 1.31424 22 2.92969 22ZM1.17188 3.22266C1.17188 2.15649 1.96045 1.28906 2.92969 1.28906L17.0703 1.28906C18.0396 1.28906 18.8281 2.15649 18.8281 3.22266V18.7773C18.8281 19.8435 18.0396 20.7109 17.0703 20.7109H12.9688V15.4687H15.8089L16.5901 10.3125H12.9688V9.02344H16.4844V3.86719L12.3828 3.86719C10.1212 3.86719 8.28125 5.89108 8.28125 8.37891V10.3125H5.9375V15.4688H8.28125V20.7109H2.92969C1.96045 20.7109 1.17188 19.8435 1.17188 18.7773L1.17188 3.22266Z" fill="#212121"/>
</svg>
