<svg width="21" height="19" viewBox="0 0 21 19" fill="none" xmlns="http://www.w3.org/2000/svg">
<path d="M21 2.42427C19.679 2.48805 19.7078 2.48285 19.5585 2.49594L20.3409 0.155304C20.3409 0.155304 17.8988 1.09643 17.2798 1.26478C15.6539 -0.266161 13.2371 -0.333804 11.5094 0.77869C10.0945 1.68993 9.33506 3.25478 9.58836 5.08381C6.83471 4.68349 4.5146 3.31604 2.68284 1.01082L2.10349 0.281861L1.67059 1.11472C1.12344 2.16712 0.941757 3.37042 1.15885 4.50289C1.24793 4.96749 1.39934 5.41061 1.60906 5.82553L1.11207 5.62378L1.05311 6.49373C0.993347 7.37745 1.27421 8.40904 1.80453 9.25298C1.95385 9.49065 2.14611 9.75165 2.3898 10.0091L2.13297 9.96784L2.44636 10.9647C2.85828 12.2744 3.71384 13.2877 4.82414 13.851C3.71528 14.344 2.8195 14.6585 1.34711 15.1659L0 15.6298L1.24425 16.3425C1.71865 16.6143 3.395 17.5218 5.05133 17.7941C8.73312 18.399 12.8784 17.9064 15.6691 15.2733C18.0196 13.0556 18.7909 9.90087 18.6307 6.61794C18.6065 6.12094 18.7364 5.6466 18.9966 5.28254C19.5178 4.55358 20.9968 2.42913 21 2.42427ZM18.0127 4.51044C17.5806 5.11486 17.3642 5.88679 17.403 6.68373C17.5646 9.9952 16.7046 12.5633 14.8465 14.3163C12.6761 16.3642 9.17516 17.168 5.24183 16.5216C4.5295 16.4046 3.7933 16.1426 3.184 15.8809C4.41847 15.436 5.37176 15.0394 6.91129 14.276L9.06044 13.2103L6.68763 13.0512C5.55105 12.975 4.60464 12.3979 4.02289 11.461C4.33179 11.4422 4.62964 11.3898 4.9262 11.3032L7.18927 10.6429L4.90729 10.0575C3.79843 9.77297 3.16637 9.07791 2.83136 8.54483C2.61138 8.19453 2.46767 7.83567 2.38147 7.50484C2.61026 7.56913 2.87702 7.61495 3.3072 7.6596L5.41935 7.87847L3.74588 6.51085C2.54008 5.52559 2.05687 4.04534 2.41111 2.62233C6.17429 6.71143 10.5928 6.4041 11.0375 6.51219C10.9396 5.51602 10.9371 5.51367 10.9114 5.41883C10.3419 3.30949 11.5901 2.23846 12.1531 1.87591C13.3291 1.11875 15.1958 1.00461 16.4888 2.25206C16.768 2.52128 17.1456 2.62719 17.4991 2.53521C17.8163 2.45263 18.0767 2.36518 18.3316 2.27002L17.8009 3.85752L18.4783 3.85802C18.3505 4.03762 18.1972 4.25263 18.0127 4.51044Z" fill="#212121"/>
</svg>
