<svg width="14" height="18" viewBox="0 0 14 18" fill="none" xmlns="http://www.w3.org/2000/svg">
<path d="M3.80957 4.00008V2.33341C3.80957 1.89139 3.98517 1.46746 4.29773 1.1549C4.61029 0.842343 5.03421 0.666748 5.47624 0.666748H8.80957C9.2516 0.666748 9.67552 0.842343 9.98808 1.1549C10.3006 1.46746 10.4762 1.89139 10.4762 2.33341V4.00008M12.9762 4.00008V15.6667C12.9762 16.1088 12.8006 16.5327 12.4881 16.8453C12.1755 17.1578 11.7516 17.3334 11.3096 17.3334H2.97624C2.53421 17.3334 2.11029 17.1578 1.79773 16.8453C1.48516 16.5327 1.30957 16.1088 1.30957 15.6667V4.00008H12.9762Z" stroke="#97B8EA" stroke-linecap="round" stroke-linejoin="round"/>
</svg>
