<svg width="18" height="18" viewBox="0 0 18 18" fill="none" xmlns="http://www.w3.org/2000/svg">
<path d="M13.3096 1.49993C13.5284 1.28106 13.7883 1.10744 14.0742 0.988988C14.3602 0.870536 14.6667 0.80957 14.9762 0.80957C15.2858 0.80957 15.5923 0.870536 15.8782 0.988988C16.1642 1.10744 16.424 1.28106 16.6429 1.49993C16.8618 1.7188 17.0354 1.97863 17.1538 2.2646C17.2723 2.55057 17.3333 2.85706 17.3333 3.16659C17.3333 3.47612 17.2723 3.78262 17.1538 4.06859C17.0354 4.35455 16.8618 4.61439 16.6429 4.83326L5.3929 16.0833L0.80957 17.3333L2.05957 12.7499L13.3096 1.49993Z" stroke="#97B8EA" stroke-linecap="round" stroke-linejoin="round"/>
</svg>
