<svg width="14" height="18" viewBox="0 0 14 18" fill="none" xmlns="http://www.w3.org/2000/svg">
<path d="M3.80859 4.00008V2.33341C3.80859 1.89139 3.98419 1.46746 4.29675 1.1549C4.60931 0.842343 5.03323 0.666748 5.47526 0.666748H8.80859C9.25062 0.666748 9.67455 0.842343 9.98711 1.1549C10.2997 1.46746 10.4753 1.89139 10.4753 2.33341V4.00008M12.9753 4.00008V15.6667C12.9753 16.1088 12.7997 16.5327 12.4871 16.8453C12.1745 17.1578 11.7506 17.3334 11.3086 17.3334H2.97526C2.53323 17.3334 2.10931 17.1578 1.79675 16.8453C1.48419 16.5327 1.30859 16.1088 1.30859 15.6667V4.00008H12.9753Z" stroke="#97B8EA" stroke-linecap="round" stroke-linejoin="round"/>
</svg>
